<svg xmlns="http://www.w3.org/2000/svg" xmlns:xlink="http://www.w3.org/1999/xlink" viewBox="0 0 1400 1400"><defs><style>.cls-1{mask:url(#mask);filter:url(#luminosity-noclip-2);}.cls-2{mix-blend-mode:multiply;fill:url(#linear-gradient);}.cls-3{fill:url(#linear-gradient-2);}.cls-4{opacity:0.33;}.cls-5{fill:#fff;}.cls-6{fill:url(#BLUE_RICH);}.cls-7{fill:url(#linear-gradient-3);}.cls-8{fill:url(#linear-gradient-4);}.cls-9{fill:url(#linear-gradient-5);}.cls-10{fill:url(#linear-gradient-6);}.cls-11{fill:url(#linear-gradient-7);}.cls-12{fill:url(#linear-gradient-8);}.cls-13{fill:url(#linear-gradient-9);}.cls-14{fill:url(#linear-gradient-10);}.cls-15{fill:url(#linear-gradient-11);}.cls-16{fill:url(#linear-gradient-12);}.cls-17{fill:url(#linear-gradient-13);}.cls-18{fill:url(#linear-gradient-14);}.cls-19{fill:url(#linear-gradient-15);}.cls-20{fill:url(#linear-gradient-16);}.cls-21{fill:url(#linear-gradient-17);}.cls-22{fill:url(#linear-gradient-18);}.cls-23{fill:url(#linear-gradient-19);}.cls-24{fill:url(#linear-gradient-20);}.cls-25{fill:url(#linear-gradient-21);}.cls-26{fill:url(#linear-gradient-22);}.cls-27{opacity:0.1;}.cls-28{opacity:0.4;}.cls-29{fill:url(#linear-gradient-23);}.cls-30{mask:url(#mask-2);}.cls-31{opacity:0.3;fill:url(#linear-gradient-24);}.cls-32{fill:url(#linear-gradient-25);}.cls-33,.cls-34,.cls-35,.cls-36,.cls-37,.cls-38,.cls-39,.cls-40,.cls-41,.cls-42,.cls-43,.cls-44,.cls-45{stroke:aqua;stroke-miterlimit:10;stroke-width:2px;}.cls-33{fill:url(#linear-gradient-26);}.cls-34{fill:url(#linear-gradient-27);}.cls-35{fill:url(#linear-gradient-28);}.cls-36{fill:url(#linear-gradient-29);}.cls-37{fill:url(#linear-gradient-30);}.cls-38{fill:url(#linear-gradient-31);}.cls-39{fill:url(#linear-gradient-32);}.cls-40{fill:url(#linear-gradient-33);}.cls-41{fill:url(#linear-gradient-34);}.cls-42{fill:url(#linear-gradient-35);}.cls-43{fill:url(#linear-gradient-36);}.cls-44{fill:url(#linear-gradient-37);}.cls-45{fill:url(#linear-gradient-38);}.cls-46{filter:url(#luminosity-noclip);}</style><filter id="luminosity-noclip" x="552.28" y="-8892" width="295.44" height="32766" filterUnits="userSpaceOnUse" color-interpolation-filters="sRGB"><feFlood flood-color="#fff" result="bg"/><feBlend in="SourceGraphic" in2="bg"/></filter><mask id="mask" x="552.28" y="-8892" width="295.44" height="32766" maskUnits="userSpaceOnUse"><g class="cls-46"/></mask><linearGradient id="linear-gradient" x1="595.59" y1="339.39" x2="804.41" y2="548.2" gradientUnits="userSpaceOnUse"><stop offset="0" stop-color="#fff"/><stop offset="0.11" stop-color="#cbcbcb"/><stop offset="0.24" stop-color="#969696"/><stop offset="0.37" stop-color="#686868"/><stop offset="0.5" stop-color="#434343"/><stop offset="0.63" stop-color="#252525"/><stop offset="0.75" stop-color="#111"/><stop offset="0.88" stop-color="#040404"/><stop offset="1"/></linearGradient><linearGradient id="linear-gradient-2" y1="1400" x2="1400" gradientUnits="userSpaceOnUse"><stop offset="0" stop-color="#f0a"/><stop offset="1" stop-color="#2a00e6"/></linearGradient><linearGradient id="BLUE_RICH" x1="76.03" y1="935.84" x2="1323.97" y2="935.84" gradientUnits="userSpaceOnUse"><stop offset="0" stop-color="#00b9f2"/><stop offset="1" stop-color="#00346c"/></linearGradient><linearGradient id="linear-gradient-3" x1="391.55" y1="831.65" x2="867.39" y2="1307.5" gradientUnits="userSpaceOnUse"><stop offset="0" stop-color="#fcee21"/><stop offset="1" stop-color="#009245"/></linearGradient><linearGradient id="linear-gradient-4" x1="605.12" y1="617.96" x2="1094.38" y2="1107.22" xlink:href="#linear-gradient-3"/><linearGradient id="linear-gradient-5" x1="544.16" y1="689.72" x2="1015.44" y2="1161" xlink:href="#linear-gradient-3"/><linearGradient id="linear-gradient-6" x1="656.12" y1="571.17" x2="1136.65" y2="1051.7" xlink:href="#linear-gradient-3"/><linearGradient id="linear-gradient-7" x1="520.72" y1="706" x2="1006.08" y2="1191.36" xlink:href="#linear-gradient-3"/><linearGradient id="linear-gradient-8" x1="623.59" y1="607.52" x2="1101.49" y2="1085.43" xlink:href="#linear-gradient-3"/><linearGradient id="linear-gradient-9" x1="639.95" y1="589.72" x2="1119.45" y2="1069.22" xlink:href="#linear-gradient-3"/><linearGradient id="linear-gradient-10" x1="629.35" y1="595.08" x2="1112.45" y2="1078.18" xlink:href="#linear-gradient-3"/><linearGradient id="linear-gradient-11" x1="671.1" y1="556.63" x2="1152.57" y2="1038.1" xlink:href="#linear-gradient-3"/><linearGradient id="linear-gradient-12" x1="653.67" y1="583.55" x2="1127.8" y2="1057.69" xlink:href="#linear-gradient-3"/><linearGradient id="linear-gradient-13" x1="476.76" y1="749.57" x2="958.92" y2="1231.73" xlink:href="#linear-gradient-3"/><linearGradient id="linear-gradient-14" x1="490.53" y1="736.01" x2="978.62" y2="1224.1" xlink:href="#linear-gradient-3"/><linearGradient id="linear-gradient-15" x1="447.37" y1="778.36" x2="929.72" y2="1260.71" xlink:href="#linear-gradient-3"/><linearGradient id="linear-gradient-16" x1="672.89" y1="550.19" x2="1159.94" y2="1037.24" xlink:href="#linear-gradient-3"/><linearGradient id="linear-gradient-17" x1="534.87" y1="695.92" x2="1009.61" y2="1170.66" xlink:href="#linear-gradient-3"/><linearGradient id="linear-gradient-18" x1="527.99" y1="700.82" x2="1005.72" y2="1178.55" xlink:href="#linear-gradient-3"/><linearGradient id="linear-gradient-19" x1="526.95" y1="700.17" x2="1009.26" y2="1182.47" xlink:href="#linear-gradient-3"/><linearGradient id="linear-gradient-20" x1="574.74" y1="654.43" x2="1056.94" y2="1136.62" xlink:href="#linear-gradient-3"/><linearGradient id="linear-gradient-21" x1="600.04" y1="616.51" x2="1101.19" y2="1117.67" xlink:href="#linear-gradient-3"/><linearGradient id="linear-gradient-22" x1="707.69" y1="552.45" x2="1170.98" y2="1015.74" xlink:href="#linear-gradient-3"/><linearGradient id="linear-gradient-23" x1="700" y1="229.77" x2="700" y2="871.86" gradientUnits="userSpaceOnUse"><stop offset="0" stop-color="#ffdf40"/><stop offset="1" stop-color="#d74177"/></linearGradient><filter id="luminosity-noclip-2" x="552.28" y="296.08" width="295.44" height="295.44" filterUnits="userSpaceOnUse" color-interpolation-filters="sRGB"><feFlood flood-color="#fff" result="bg"/><feBlend in="SourceGraphic" in2="bg"/></filter><mask id="mask-2" x="552.28" y="296.08" width="295.44" height="295.44" maskUnits="userSpaceOnUse"><g class="cls-1"><path class="cls-2" d="M700,296.08c-81.45,0-147.72,66.26-147.72,147.72S618.55,591.52,700,591.52,847.72,525.25,847.72,443.8,781.45,296.08,700,296.08Zm0,229.13a81.41,81.41,0,1,1,81.41-81.41A81.5,81.5,0,0,1,700,525.21Z"/></g></mask><linearGradient id="linear-gradient-24" x1="595.59" y1="339.39" x2="804.41" y2="548.2" gradientUnits="userSpaceOnUse"><stop offset="0"/><stop offset="1"/></linearGradient><linearGradient id="linear-gradient-25" x1="603.92" y1="78.85" x2="604.49" y2="78.28" gradientTransform="translate(-108056 -13659.78) scale(180 179.51)" gradientUnits="userSpaceOnUse"><stop offset="0" stop-color="#00aee9"/><stop offset="1" stop-color="#69fabd"/></linearGradient><linearGradient id="linear-gradient-26" x1="269.31" y1="1084.08" x2="344.75" y2="1084.08" gradientTransform="matrix(1, 0, 0, 1, 0, 0)" xlink:href="#linear-gradient-25"/><linearGradient id="linear-gradient-27" x1="350.02" y1="1095.84" x2="416.83" y2="1095.84" gradientTransform="matrix(1, 0, 0, 1, 0, 0)" xlink:href="#linear-gradient-25"/><linearGradient id="linear-gradient-28" x1="422.62" y1="1095.88" x2="490.08" y2="1095.88" gradientTransform="matrix(1, 0, 0, 1, 0, 0)" xlink:href="#linear-gradient-25"/><linearGradient id="linear-gradient-29" x1="494" y1="1097.23" x2="540.31" y2="1097.23" gradientTransform="matrix(1, 0, 0, 1, 0, 0)" xlink:href="#linear-gradient-25"/><linearGradient id="linear-gradient-30" x1="546.74" y1="1107.13" x2="613.81" y2="1107.13" gradientTransform="matrix(1, 0, 0, 1, 0, 0)" xlink:href="#linear-gradient-25"/><linearGradient id="linear-gradient-31" x1="620.82" y1="1095.94" x2="687.76" y2="1095.94" gradientTransform="matrix(1, 0, 0, 1, 0, 0)" xlink:href="#linear-gradient-25"/><linearGradient id="linear-gradient-32" x1="699.15" y1="1084.56" x2="734.45" y2="1084.56" gradientTransform="matrix(1, 0, 0, 1, 0, 0)" xlink:href="#linear-gradient-25"/><linearGradient id="linear-gradient-33" x1="745.83" y1="1081.6" x2="769.95" y2="1081.6" gradientTransform="matrix(1, 0, 0, 1, 0, 0)" xlink:href="#linear-gradient-25"/><linearGradient id="linear-gradient-34" x1="780.49" y1="1095.94" x2="847.44" y2="1095.94" gradientTransform="matrix(1, 0, 0, 1, 0, 0)" xlink:href="#linear-gradient-25"/><linearGradient id="linear-gradient-35" x1="861.46" y1="1084.08" x2="885.51" y2="1084.08" gradientTransform="matrix(1, 0, 0, 1, 0, 0)" xlink:href="#linear-gradient-25"/><linearGradient id="linear-gradient-36" x1="932.52" y1="1082.98" x2="995.99" y2="1082.98" gradientTransform="matrix(1, 0, 0, 1, 0, 0)" xlink:href="#linear-gradient-25"/><linearGradient id="linear-gradient-37" x1="1010.07" y1="1082.98" x2="1070.01" y2="1082.98" gradientTransform="matrix(1, 0, 0, 1, 0, 0)" xlink:href="#linear-gradient-25"/><linearGradient id="linear-gradient-38" x1="1067.37" y1="1084.08" x2="1133.41" y2="1084.08" gradientTransform="matrix(1, 0, 0, 1, 0, 0)" xlink:href="#linear-gradient-25"/></defs><title>Geospatial-NFT0</title><g id="Background"><rect id="gradient_fill" data-name="gradient fill" class="cls-3" width="1400" height="1400"/></g><g id="Objects"><g id="world_map_folded" data-name="world map folded"><polygon id="shadow" class="cls-4" points="1074.46 911.25 884.93 861.71 700 912.28 515.07 861.71 325.54 911.25 46.57 1170.23 1353.43 1170.23 1074.46 911.25"/><g id="paper"><polygon id="paper-2" data-name="paper" class="cls-5" points="1074.46 751.25 884.93 701.71 700 752.28 515.07 701.71 325.54 751.25 46.57 1170.23 387.11 1059.82 700 1170.23 1012.89 1059.82 1353.43 1170.23 1074.46 751.25"/><polygon id="paper-3" data-name="paper" class="cls-6" points="387.26 1048.37 76.03 1149.29 331.91 760.78 515.01 712.93 700 763.52 884.99 712.93 1068.09 760.78 1323.97 1149.29 1012.74 1048.37 700 1158.74 387.26 1048.37"/></g><g id="world_map" data-name="world map"><polygon class="cls-7" points="561.3 905.35 548.24 905.35 541.62 900.14 537.4 900.14 534.55 901.59 536.3 896.67 529.25 891.12 522.97 891.12 513.52 883.58 510.44 883.58 506.98 885.23 498.54 885.23 497.15 884.08 483.85 884.08 478.23 886.68 467.33 886.68 463.84 883.61 467.02 877.73 464.85 875.86 457.46 875.86 461.21 869.23 457.29 869.23 449.34 872.67 441.42 872.67 439.32 866.05 443.28 859.72 450.33 856.78 462.16 856.78 465.13 855.53 476.61 855.53 478.07 856.71 475.86 860.8 478.58 863.02 481 863.02 484.67 859.96 484.47 855.44 485.68 853.16 498.63 847.61 500.27 844.34 507.13 841.42 508.48 838.63 515.46 838.63 516.75 835.88 522.23 835.88 529.95 832.59 536.81 832.59 537.34 831.34 533.83 831.34 529.53 831.34 530.49 829.16 523.31 829.16 529.02 826.77 544.15 826.77 551.16 823.77 552.01 821.6 550.21 820.46 550.81 818.92 547.08 818.92 543.28 816.51 544.31 814.05 540.78 811.84 537.92 811.84 531.55 814.42 528.8 812.66 530.25 809.54 524.86 809.54 523.26 808.52 513.93 808.52 511.14 813.97 512.44 814.84 509.94 819.76 506.4 819.76 504.32 823.77 500.27 823.77 497.21 821.63 499.07 818.21 490.02 818.21 485.02 814.69 481.83 814.69 483.04 812.66 479.63 812.66 481.94 808.84 488.98 806.18 492.94 806.18 503.68 802.11 508 802.11 512.13 800.53 513.74 797.5 511.91 796.34 506.29 796.34 504.89 798.87 501.85 798.87 493.6 793.51 495.24 790.76 497.01 790.76 502.12 788.9 491.99 788.9 489.42 793.11 487.28 793.11 486.12 794.99 489.61 798.16 480.16 798.16 479.37 799.4 471.92 799.4 468.94 797.34 463.16 797.34 459.59 799.17 450.69 799.17 436.28 795.25 426.34 795.25 413.05 796.97 403.44 796.97 382.46 793.11 367.64 793.11 355.85 796.88 350.09 796.88 352.6 799.91 346.34 802.24 349.66 805.55 340.79 807.67 339.49 811.49 343.51 811.49 343.75 815.29 333.75 818.36 332.6 819.5 344.59 817.95 363.76 812.78 367.79 812.78 374.46 811 385.96 812.28 390.44 814.79 397.33 814.79 401.6 824.87 407.96 827.13 403.67 832.62 396.43 839.67 397.43 849.03 402.31 850.31 406.61 866.02 411.76 865.62 409.75 854.88 412.63 854.88 415.65 862.52 418.69 865.42 418.46 870.96 435.2 876.42 442.24 876.42 445.33 879.87 454.18 881.23 455.05 884.4 462.32 888.29 470.79 888.29 472.98 890.98 470.35 896.14 461.59 900.45 454.61 909.33 459.9 928.24 470.65 934.59 450.86 968.5 440.89 976.83 431.35 993.12 434.3 994.16 421.95 1004.63 414.66 1019.32 423.14 1035.23 440.52 1035.23 434.32 1023.81 438.29 1015.15 447.96 1009.56 450.12 1004.69 460.14 994.86 462.35 989.76 471.15 987.29 473.12 982.59 479.88 982.59 489.26 979.03 492.45 970.88 501.99 970.88 522.51 955.47 524.25 950.34 541.91 945.13 550.64 940.03 559.84 922.89 571.56 916.43 573.45 909.18 566.28 909.18 561.3 905.35"/><polygon class="cls-8" points="1018.42 796.25 980.25 796.25 973.5 794 959.22 794 952.52 791.74 915.73 791.74 908.09 789.06 872.95 789.06 872.13 787.61 876.84 784.68 875.72 782.8 851.53 782.8 848.05 784.85 838.51 784.85 832.67 788.24 821.77 788.24 822.98 791.17 809.38 791.17 812.02 798.25 809.3 797.15 806.93 790.64 795.43 790.64 797.84 797.98 791.53 795.39 774.22 795.39 767.9 798.78 757.9 798.78 744.88 805.65 739.65 805.65 731.85 802.12 743.95 802.12 747.68 800.17 747.15 797.15 741.26 797.15 737.1 795.32 724.04 795.32 705.83 795.32 685.72 805.01 678.32 808.58 678.15 814.03 685.05 814.03 688.69 812.23 693.6 814.66 693.65 818 699.42 818 702.63 816.36 702.5 812.88 705.22 812.88 705.1 810.5 703.2 810.5 703.1 807.91 713.16 802.89 716.68 802.89 716.78 804.03 711.12 806.87 711.35 810.35 713.96 811.6 723.83 811.6 723.95 812.83 717.6 812.83 717.81 815.29 711.82 815.29 712.04 818.62 708.55 820.43 691.28 820.43 688.9 819.23 688.9 816.57 684.62 816.57 684.56 821.11 679.3 821.11 664.35 828.59 658.71 828.59 658.52 830.93 662.7 830.93 665.19 832.27 664.97 835.6 652.27 835.6 648.98 837.25 648.18 844.66 650.21 845.83 653.35 845.83 661.52 845.83 667.52 842.7 667.66 840.25 670.73 840.25 674.28 838.4 674.36 836.51 678.45 836.51 679.83 837.25 684.44 834.84 686.53 834.84 696.25 839.98 697.9 839.98 700.87 841.54 700.93 843.48 704.24 843.48 704.16 841.6 706.34 841.6 706.29 840.43 696.34 835.23 698.19 834.25 708.09 839.38 708.16 840.78 716.53 845.14 719.11 843.68 713.94 841.01 715.25 840.28 728.9 840.28 729.04 841.6 724.57 841.6 724.81 844.19 730.69 847.21 745.48 847.21 746.1 851.39 741.91 853.9 726.41 853.9 722.78 851.99 711.98 851.99 709.9 853.18 710.03 855.44 706.31 855.44 702.67 853.47 699.13 853.47 696.03 851.78 691.51 851.78 691.47 845.62 670.8 845.62 663.22 848.45 653.1 848.45 644.36 853 643.98 856.26 639.61 858.55 636.53 858.55 627.42 866.58 625.05 881.95 640.14 893.77 646.6 893.77 648.94 892.71 664.07 892.71 668.88 890.68 676.16 890.68 678.54 894.08 686.38 894.08 686.32 904.01 697.98 920.51 694.34 931.19 701.51 941.67 701.8 952.79 716.4 971.51 723.02 971.51 725.87 968.34 738.8 968.34 751.8 956.96 750.88 949.85 758.36 946.09 757.03 936.92 770.73 928.51 769 918.72 763.13 911.92 766.61 905.21 779.89 897.38 788.26 886.16 787.64 883.53 770.76 884.7 762.81 877.68 757.3 877.68 750.97 867.27 747.87 865.82 739.68 857.15 743.81 858.63 746.55 858.63 756.07 866.42 758.04 870.3 766.89 875.56 772.89 880.96 777.83 880.8 795.03 874.99 796.41 873.43 803.77 867.22 800.7 864.79 797.45 864.79 794.83 862.55 791.89 862.55 788.92 864.52 784.41 864.52 774.17 855.82 777.51 855.21 779.87 855.87 788.14 860.37 792.27 860.37 795.24 859.59 798.68 862.12 808.45 863.29 818.12 862.17 829.51 868.83 835.27 868.73 835.57 871.47 851.97 888.78 855.84 888.78 858.12 883.93 857.04 876.87 869 870.35 867.91 867.92 877.81 866.62 890.38 877.29 894.73 874.88 902.34 881.95 905.87 888.81 916.84 896.99 925.52 899.59 925.95 897.84 919.33 892.33 909.79 889.04 906 885.28 905.87 881.3 910.09 881.3 918.46 887.11 923.27 887.63 928.04 881.66 925.38 877.05 914.24 872.26 914.72 869.13 919.41 868.12 925.26 868.12 936.56 865.62 941.08 855.16 932.03 848.67 932.35 846.31 924.87 843.36 928.96 839.76 938.9 842.21 945.58 848.48 951.98 848.57 951.33 845.95 944.24 841.86 950.91 837.17 954.79 837.17 962.78 828.29 958.12 822.15 954.69 820.89 949.05 820.89 947.33 818.55 955.37 812.12 980.43 812.12 978.73 810.11 980.59 808.54 991.13 808.54 993.22 810.9 985.09 818 991.02 825.03 996.44 825.03 1002.44 819.52 997.29 813.73 1000.52 810.86 1010.01 810.86 1013.42 807.75 1026.16 807.75 1022.86 804.41 1035.63 804.41 1031.58 800.46 1018.42 796.25"/><polygon class="cls-9" points="788.99 924.37 789.52 926.82 784.44 930.74 780.79 930.74 782.28 938.26 779.83 940.17 780.49 943.61 782.14 944.61 782.75 947.77 785.63 949.52 790.07 949.52 792.84 947.29 792.19 944.29 794.1 942.76 793.38 939.51 795.99 937.43 795.02 933.15 797.91 930.87 795.8 921.89 791.69 921.89 788.99 924.37"/><polygon class="cls-10" points="1078.18 942.1 1066.13 936.83 1059.36 936.83 1054.3 930.42 1049.8 928.46 1048.35 926.6 1043.57 924.53 1040.54 920.62 1037.19 920.62 1036 922.16 1042.17 930.25 1040.68 932.25 1037.04 932.25 1035.91 930.74 1031.76 930.74 1025.67 928.03 1021.31 922.06 1009.8 922.06 1004.53 928.42 1002.87 925.99 996.92 925.99 991 932.95 993.73 937.15 982.23 937.15 975.63 944.82 980.24 952.5 986.01 955.33 989.46 961 993.56 963.03 997.14 968.87 1002.42 971.5 1007.62 971.5 1009.41 969.13 1018.85 969.13 1022.34 964.36 1027.53 964.36 1028.74 962.68 1042.62 962.68 1048.27 965.34 1049.83 967.51 1051.9 967.51 1054.31 970.82 1057.39 970.82 1059.56 967.51 1062.52 971.5 1065.75 971.5 1072.08 974.47 1071.02 976.18 1076.42 978.72 1079.94 978.72 1085.38 981.28 1095.75 981.28 1097.17 978.77 1105.02 978.77 1099.12 971.51 1101.86 966.7 1097.41 961.31 1099.13 958.38 1092.01 949.86 1080.35 944.75 1078.18 942.1"/><polygon class="cls-11" points="627.83 789.85 631.7 789.85 631.92 788.58 633.96 788.58 634.55 785.12 631.5 785.12 631.82 783.33 634.86 783.33 635.18 781.47 632.48 781.47 632.88 779.22 636.16 779.22 636.51 777.12 641.21 777.12 641.36 776.12 646.23 776.12 646.5 774.17 641.66 774.17 640.03 774.84 633.58 774.84 633.81 773.58 621.57 773.58 621.76 772.72 632.36 772.72 632.56 771.63 631.14 770.96 622.41 770.96 620.61 770.09 607.6 770.09 604.13 771.44 596.5 771.44 595.09 770.73 589.56 770.73 589.27 771.6 591.83 772.9 591.51 773.9 582.8 773.9 582.9 773.58 576.56 773.58 576.97 772.49 572.16 772.49 569.56 773.47 564.29 773.47 563.57 775.24 556.43 775.24 554.85 775.83 550.64 775.83 550.05 777.16 553.89 777.16 553.26 778.59 551.14 779.38 538.95 779.38 538.43 780.46 540.3 781.53 549.55 781.53 549.16 782.42 541.53 782.42 540.9 783.78 543.35 783.78 545.14 784.81 556.48 784.81 558.98 786.21 562.77 786.21 566.06 788.05 564.44 792.27 570.85 792.27 570.09 794.36 567.42 794.36 566.9 795.75 570.28 797.68 566.96 797.68 565.08 802.75 568.89 804.98 568.22 806.85 573.43 809.91 583.32 809.91 586.07 808.74 586.66 806.75 589.04 806.75 590.08 803.22 592.09 802.38 597.65 802.38 605.91 798.87 614.85 798.87 620.08 796.62 620.44 794.9 624.81 794.9 625.21 792.85 627.45 791.89 627.83 789.85"/><polygon class="cls-12" points="930.1 905.73 925.04 901.83 912.94 896.6 908.07 895.03 904.88 892.56 899.12 892.56 899.72 893.77 904.49 895.72 911.15 899.2 923.08 907.91 932.31 911.76 934.67 911.22 933 906.82 930.1 905.73"/><polygon class="cls-13" points="957.75 893.74 955.59 891.92 950.85 890.57 944.5 897.01 942.25 897.01 940.8 898.4 937.04 897.92 936.89 900.45 942.49 904.07 945.61 907.63 956.2 908.42 959.75 907.14 958.86 904.61 960.51 903.1 959.5 900.57 961.98 900.45 960.73 898.46 956.42 896.09 956.16 894.76 957.75 893.74"/><polygon class="cls-14" points="959.96 914.79 955.14 914.41 953.96 913.41 948.93 912.48 946.24 913.23 943.7 913.04 942.72 912.17 937.82 911.76 936.52 913.16 940.07 914.73 948.17 915.04 954.48 916.11 961.44 916.43 959.96 914.79"/><polygon class="cls-15" points="995.08 904.31 1001.51 905.15 1001.83 907.08 1003.84 908.42 1006 907.93 1018.87 911.12 1022.08 913.6 1022.59 915.74 1027.79 915.74 1030.95 917.44 1037.34 917.44 1036.07 915.8 1037.49 915.23 1044.41 916.43 1050.7 919.87 1059.06 920.9 1057.11 919.36 1049.94 917.32 1047.18 914.98 1044.23 913.73 1043.92 911.76 1039.73 910.62 1036.2 907.87 1027.55 905.15 1013.36 903.83 1009.34 906.84 1007.52 906.84 1001.32 901.95 997.61 901.95 995.51 902.88 995.08 904.31"/><polygon class="cls-16" points="978.18 900.97 978.58 898.74 974.29 899.67 970.7 899.48 966.08 899.44 966.94 902.47 966.38 903.58 967.81 906.74 969.62 907.27 970.59 910.2 972.05 910.98 974.08 910.4 971.99 906.46 972.94 906.06 974.55 908.44 977.25 909.63 978.68 908.18 973.01 904.49 976.32 904.09 976.38 902.54 973.01 902.35 969.82 903.1 968.45 900.97 978.18 900.97"/><polygon class="cls-17" points="537.97 792.89 533.08 792.89 530.04 791.06 519.56 791.06 520.52 789.23 513.2 789.23 511.66 792.05 509.53 792.05 511.34 788.77 507.4 788.77 502.08 790.67 500.78 792.92 503.92 794.93 524.68 794.93 530.02 798.21 529.35 799.62 526.63 800.67 525.61 802.78 520.33 802.78 519.25 804.92 526.95 804.92 532.2 808.23 535.78 808.23 536.3 807.07 540.09 807.07 541.08 804.8 536.64 802.07 539.13 801.09 543.11 803.52 547.41 801.8 540.37 797.57 541.52 795.01 537.97 792.89"/><polygon class="cls-18" points="528.11 781.55 531.66 781.55 533.29 778.31 542.41 778.31 547.33 776.5 548.09 774.83 550.64 774.83 551.07 773.88 559.23 773.88 560.27 771.42 528.37 771.42 519.15 772.94 518.52 774.06 510.88 774.06 509.46 776.5 521.63 776.5 521.31 777.1 515.89 777.1 515.25 778.24 518.65 778.24 517.85 779.71 514.29 779.71 513.5 781.12 511.31 781.12 510.11 783.23 504.72 783.23 504.25 784.05 526.83 784.05 528.11 781.55"/><polygon class="cls-19" points="453.43 797.43 457.9 797.43 461.16 796.27 475.69 796.27 477.48 793.51 469.92 793.51 472.05 790.34 467.38 790.34 466.07 792.25 456.18 789.82 448.28 789.82 446.6 792.55 453.43 797.43"/><polygon class="cls-20" points="980.17 849.55 980.4 842.95 975.91 839.67 971.32 839.67 972.83 843.66 966.33 845.56 967.74 848.09 957.6 848.82 959.58 851.64 968.77 851.64 980.17 849.55"/><polygon class="cls-21" points="656.44 822.02 656.06 826.13 661.68 826.13 667.63 823.18 667.72 821.69 666.44 821.02 666.59 818.69 660.89 815.73 661.1 813.14 655.63 813.14 655.1 818.58 659.13 820.71 656.44 822.02"/><polygon class="cls-22" points="653.65 820.06 645.5 820.06 644.99 824.23 653.23 824.23 653.65 820.06"/><polygon class="cls-23" points="639.91 803.3 624.48 803.3 623.8 806.84 639.39 806.84 639.91 803.3"/><polygon class="cls-24" points="708.65 779.13 693.85 779.13 693.9 782.8 708.88 782.8 708.65 779.13"/><polygon class="cls-25" points="783.76 785.8 778.46 783.67 761.55 792.47 766.88 794.72 783.76 785.8"/><polygon class="cls-26" points="1140.52 995.89 1149.93 1000.04 1154.61 989.2 1147.13 981.28 1140.52 995.89"/></g><g id="map_shadow" data-name="map shadow" class="cls-27"><polygon class="cls-5" points="46.57 1170.23 387.11 1059.82 515.07 701.71 325.54 751.25 46.57 1170.23"/><polygon class="cls-5" points="884.93 701.71 700 752.28 700 1170.23 1012.89 1059.82 884.93 701.71"/><polygon points="387.11 1059.82 700 1170.23 700 752.28 515.07 701.71 387.11 1059.82"/><polygon points="1074.46 751.25 884.93 701.71 1012.89 1059.82 1353.43 1170.23 1074.46 751.25"/></g></g><g id="loc_pin" data-name="loc pin"><polygon id="shadow-2" data-name="shadow" class="cls-28" points="700 752.28 700 871.86 884.93 701.71 700 752.28"/><g id="loc_pin-2" data-name="loc pin"><path class="cls-29" d="M700,229.77h0c-164.76,0-267.74,178.36-185.36,321L700,871.86,885.36,550.81C967.74,408.13,864.76,229.77,700,229.77Zm0,295.44a81.41,81.41,0,1,1,81.41-81.41A81.5,81.5,0,0,1,700,525.21Z"/><g class="cls-30"><path class="cls-31" d="M700,296.08c-81.45,0-147.72,66.26-147.72,147.72S618.55,591.52,700,591.52,847.72,525.25,847.72,443.8,781.45,296.08,700,296.08Zm0,229.13a81.41,81.41,0,1,1,81.41-81.41A81.5,81.5,0,0,1,700,525.21Z"/></g><path id="Shape" class="cls-32" d="M734.68,385.32a25.28,25.28,0,0,0-25.3,25.21v27.94c-2.64.2-5.28.3-8,.3s-5.37.09-8,.29V410.53a25.31,25.31,0,0,0-50.61,0v66.83a25.31,25.31,0,0,0,50.61,0V449.42c2.64-.2,5.28-.3,8-.3s5.38-.1,8-.29v28.53a25.31,25.31,0,0,0,50.61,0V410.53A25.42,25.42,0,0,0,734.68,385.32Zm-66.63,10.36a14.93,14.93,0,0,1,15,14.85v29.6a86.07,86.07,0,0,0-21.5,6.06,36.08,36.08,0,0,0-8.3,5V410.53A14.78,14.78,0,0,1,668.05,395.68Zm14.85,81.68a14.95,14.95,0,1,1-29.9,0v-6.74c0-6,4.69-11.53,12.51-15.05a76.78,76.78,0,0,1,17.29-5.08v26.87Zm51.78,14.85a14.92,14.92,0,0,1-14.95-14.85V447.75a85.63,85.63,0,0,0,21.5-6.05,35.77,35.77,0,0,0,8.3-5v40.65A14.84,14.84,0,0,1,734.68,492.21Zm2.35-60a76.86,76.86,0,0,1-17.3,5.08V410.53a15,15,0,0,1,29.9,0v6.74C749.53,423.13,744.84,428.8,737,432.22Z"/></g></g><path class="cls-33" d="M311.82,1078.77h24.89q8,10,8,21a28.3,28.3,0,0,1-9.43,21.61q-9.42,8.74-23.18,8.74-17.88,0-30.35-13.57t-12.48-33q0-19.54,12.7-32.54t31.74-13a45.86,45.86,0,0,1,14.4,2.64v26.1a26.77,26.77,0,0,0-11.25-2.89q-9.19,0-15,5.72t-5.81,14.86q0,9.33,5.4,14.79t14.59,5.47q5.87,0,5.86-3.41c0-1.72-1.29-2.57-3.86-2.57h-6.24Z"/><path class="cls-34" d="M416.58,1099.8H380.11a16.88,16.88,0,0,1,.33-11.38h12.21q-1.27-7.14-8-7.14a8.71,8.71,0,0,0-7.33,3.82,16.06,16.06,0,0,0-2.83,9.81q0,6.24,2.73,10.1a8.41,8.41,0,0,0,7.17,3.86q3.6,0,6.94-3.61l13.7,16.47a33.66,33.66,0,0,1-21.28,7.52q-14.28,0-24-9.58a33.8,33.8,0,0,1,.1-47.52,32.86,32.86,0,0,1,24.08-9.71,32.38,32.38,0,0,1,32.92,32.86C416.83,1096.24,416.75,1097.74,416.58,1099.8Z"/><path class="cls-35" d="M457,1062.5a31.79,31.79,0,0,1,23.38,9.81,33.27,33.27,0,0,1-.13,47.17,33.92,33.92,0,0,1-47.68,0,33.21,33.21,0,0,1,0-47.33Q442.43,1062.51,457,1062.5Zm-.64,23.73a8.77,8.77,0,0,0-6.56,2.8,9.95,9.95,0,0,0,0,13.66,9,9,0,0,0,13.12,0,9.95,9.95,0,0,0,0-13.66A8.83,8.83,0,0,0,456.32,1086.23Z"/><path class="cls-36" d="M540.31,1064.75v25.34q-5.09,0-7,1.89t-2.41,7.5q-1.68,18.58-14.41,26.23-6.75,4-19.16,4H494v-25.46h1.1q5.79,0,8.26-2.42c1.65-1.6,2.61-4.42,2.86-8.45q.52-9.84,1.84-13.83a20,20,0,0,1,5.36-7.91q7.08-6.87,19.62-6.88Z"/><path class="cls-37" d="M570.79,1151.69h-24v-53.5q0-14.73,7.71-24a31.64,31.64,0,0,1,11.29-8.48,34.29,34.29,0,0,1,38.23,6.49,31.86,31.86,0,0,1,9.84,23.67,32.33,32.33,0,0,1-9.78,23.53,31.44,31.44,0,0,1-23.15,9.91c-1.45,0-3.6-.15-6.43-.45v-26.5a9.43,9.43,0,0,0,5.92,2.38,8.56,8.56,0,0,0,6.4-2.77,9.09,9.09,0,0,0,2.67-6.55,8.68,8.68,0,0,0-2.77-6.47,9.19,9.19,0,0,0-6.62-2.67q-9.27,0-9.26,12.8Z"/><path class="cls-38" d="M660,1103.91v24.89a32,32,0,0,1-5.4.52q-14.48,0-24.12-9.52t-9.64-23.86a33.21,33.21,0,0,1,33.44-33.38q15.56,0,24.53,9.1t9,24.86V1128h-24v-29.71a12.42,12.42,0,0,0-2.47-8.11,8.19,8.19,0,0,0-6.66-3,9.46,9.46,0,0,0-6.82,15.88,8.52,8.52,0,0,0,6.37,2.58A10.87,10.87,0,0,0,660,1103.91Z"/><path class="cls-39" d="M723.2,1040.18v24.57H734v25.4H723.2q0,7.65,2.41,10.55c1.61,1.93,4.55,2.89,8.84,2.89v25.28c-1.24,0-2.17.06-2.77.06a32.7,32.7,0,0,1-15.4-3.79,31.15,31.15,0,0,1-11.6-10.29q-5.53-8.3-5.53-22v-52.67Z"/><path class="cls-40" d="M769.88,1063.85V1128h-24v-64.12Zm-12-28.62a11.79,11.79,0,0,1,8.46,3.44,11.38,11.38,0,0,1,.19,16.37,13.23,13.23,0,0,1-17.3,0,11.39,11.39,0,0,1,.2-16.37A11.77,11.77,0,0,1,757.92,1035.23Z"/><path class="cls-41" d="M819.66,1103.91v24.89a32.24,32.24,0,0,1-5.4.52q-14.47,0-24.12-9.52t-9.65-23.86a33.22,33.22,0,0,1,33.44-33.38q15.57,0,24.54,9.1t9,24.86V1128H823.39v-29.71a12.43,12.43,0,0,0-2.48-8.11,8.17,8.17,0,0,0-6.65-3,9.46,9.46,0,0,0-6.82,15.88,8.49,8.49,0,0,0,6.37,2.58A10.89,10.89,0,0,0,819.66,1103.91Z"/><path class="cls-42" d="M885.51,1040.18V1128h-24v-87.79Z"/><path class="cls-43" d="M932.52,1128v-57q0-15,9-24t23.89-9q14.85,0,22.73,8.74t7.88,25.15V1128H969.88v-56.08q0-8-5.72-8-5.53,0-5.53,8V1128Z"/><path class="cls-44" d="M1044.86,1081.54v23.53h-8.68V1128h-26.11V1073.5q0-15.37,9.49-25.44t23.89-10.06q15.88,0,26.56,13.7l-21.42,15.62q-1.8-5-6.36-5-6,0-6,8.36v10.87Z"/><path class="cls-45" d="M1113.48,1065.39V1128h-26.11v-62.58h-20v-25.21h66v25.21Z"/></g></svg>